<?xml version="1.0" encoding="utf-8"?>
<svg xmlns="http://www.w3.org/2000/svg" xmlns:xlink="http://www.w3.org/1999/xlink" width="816" height="400" viewBox="0 0 3264 1600">
<defs>
  <clipPath id="clip750">
    <rect x="0" y="0" width="3264" height="1600"/>
  </clipPath>
</defs>
<path clip-path="url(#clip750)" d="M0 1600 L3264 1600 L3264 0 L0 0  Z" fill="#ffffff" fill-rule="evenodd" fill-opacity="1"/>
<defs>
  <clipPath id="clip751">
    <rect x="652" y="0" width="2286" height="1600"/>
  </clipPath>
</defs>
<path clip-path="url(#clip750)" d="M324.343 1366.17 L3138.02 1366.17 L3138.02 125.984 L324.343 125.984  Z" fill="#ffffff" fill-rule="evenodd" fill-opacity="1"/>
<defs>
  <clipPath id="clip752">
    <rect x="324" y="125" width="2815" height="1241"/>
  </clipPath>
</defs>
<polyline clip-path="url(#clip752)" style="stroke:#000000; stroke-linecap:round; stroke-linejoin:round; stroke-width:2; stroke-opacity:0.1; fill:none" points="692.189,1366.17 692.189,125.984 "/>
<polyline clip-path="url(#clip752)" style="stroke:#000000; stroke-linecap:round; stroke-linejoin:round; stroke-width:2; stroke-opacity:0.1; fill:none" points="1234.14,1366.17 1234.14,125.984 "/>
<polyline clip-path="url(#clip752)" style="stroke:#000000; stroke-linecap:round; stroke-linejoin:round; stroke-width:2; stroke-opacity:0.1; fill:none" points="1776.08,1366.17 1776.08,125.984 "/>
<polyline clip-path="url(#clip752)" style="stroke:#000000; stroke-linecap:round; stroke-linejoin:round; stroke-width:2; stroke-opacity:0.1; fill:none" points="2318.03,1366.17 2318.03,125.984 "/>
<polyline clip-path="url(#clip752)" style="stroke:#000000; stroke-linecap:round; stroke-linejoin:round; stroke-width:2; stroke-opacity:0.1; fill:none" points="2859.97,1366.17 2859.97,125.984 "/>
<polyline clip-path="url(#clip750)" style="stroke:#000000; stroke-linecap:round; stroke-linejoin:round; stroke-width:4; stroke-opacity:1; fill:none" points="324.343,1366.17 3138.02,1366.17 "/>
<polyline clip-path="url(#clip750)" style="stroke:#000000; stroke-linecap:round; stroke-linejoin:round; stroke-width:4; stroke-opacity:1; fill:none" points="692.189,1366.17 692.189,1347.27 "/>
<polyline clip-path="url(#clip750)" style="stroke:#000000; stroke-linecap:round; stroke-linejoin:round; stroke-width:4; stroke-opacity:1; fill:none" points="1234.14,1366.17 1234.14,1347.27 "/>
<polyline clip-path="url(#clip750)" style="stroke:#000000; stroke-linecap:round; stroke-linejoin:round; stroke-width:4; stroke-opacity:1; fill:none" points="1776.08,1366.17 1776.08,1347.27 "/>
<polyline clip-path="url(#clip750)" style="stroke:#000000; stroke-linecap:round; stroke-linejoin:round; stroke-width:4; stroke-opacity:1; fill:none" points="2318.03,1366.17 2318.03,1347.27 "/>
<polyline clip-path="url(#clip750)" style="stroke:#000000; stroke-linecap:round; stroke-linejoin:round; stroke-width:4; stroke-opacity:1; fill:none" points="2859.97,1366.17 2859.97,1347.27 "/>
<path clip-path="url(#clip750)" d="M661.09 1418.65 L690.765 1418.65 L690.765 1422.59 L661.09 1422.59 L661.09 1418.65 Z" fill="#000000" fill-rule="nonzero" fill-opacity="1" /><path clip-path="url(#clip750)" d="M713.705 1404.99 L701.9 1423.44 L713.705 1423.44 L713.705 1404.99 M712.478 1400.92 L718.358 1400.92 L718.358 1423.44 L723.288 1423.44 L723.288 1427.33 L718.358 1427.33 L718.358 1435.48 L713.705 1435.48 L713.705 1427.33 L698.103 1427.33 L698.103 1422.82 L712.478 1400.92 Z" fill="#000000" fill-rule="nonzero" fill-opacity="1" /><path clip-path="url(#clip750)" d="M1204.08 1418.65 L1233.75 1418.65 L1233.75 1422.59 L1204.08 1422.59 L1204.08 1418.65 Z" fill="#000000" fill-rule="nonzero" fill-opacity="1" /><path clip-path="url(#clip750)" d="M1247.87 1431.54 L1264.19 1431.54 L1264.19 1435.48 L1242.25 1435.48 L1242.25 1431.54 Q1244.91 1428.79 1249.49 1424.16 Q1254.1 1419.51 1255.28 1418.16 Q1257.53 1415.64 1258.41 1413.9 Q1259.31 1412.15 1259.31 1410.46 Q1259.31 1407.7 1257.36 1405.97 Q1255.44 1404.23 1252.34 1404.23 Q1250.14 1404.23 1247.69 1404.99 Q1245.26 1405.76 1242.48 1407.31 L1242.48 1402.59 Q1245.3 1401.45 1247.76 1400.87 Q1250.21 1400.29 1252.25 1400.29 Q1257.62 1400.29 1260.81 1402.98 Q1264.01 1405.66 1264.01 1410.15 Q1264.01 1412.28 1263.2 1414.21 Q1262.41 1416.1 1260.3 1418.7 Q1259.73 1419.37 1256.62 1422.59 Q1253.52 1425.78 1247.87 1431.54 Z" fill="#000000" fill-rule="nonzero" fill-opacity="1" /><path clip-path="url(#clip750)" d="M1776.08 1404 Q1772.47 1404 1770.64 1407.56 Q1768.84 1411.1 1768.84 1418.23 Q1768.84 1425.34 1770.64 1428.9 Q1772.47 1432.45 1776.08 1432.45 Q1779.72 1432.45 1781.52 1428.9 Q1783.35 1425.34 1783.35 1418.23 Q1783.35 1411.1 1781.52 1407.56 Q1779.72 1404 1776.08 1404 M1776.08 1400.29 Q1781.89 1400.29 1784.95 1404.9 Q1788.03 1409.48 1788.03 1418.23 Q1788.03 1426.96 1784.95 1431.57 Q1781.89 1436.15 1776.08 1436.15 Q1770.27 1436.15 1767.19 1431.57 Q1764.14 1426.96 1764.14 1418.23 Q1764.14 1409.48 1767.19 1404.9 Q1770.27 1400.29 1776.08 1400.29 Z" fill="#000000" fill-rule="nonzero" fill-opacity="1" /><path clip-path="url(#clip750)" d="M2312.68 1431.54 L2329 1431.54 L2329 1435.48 L2307.06 1435.48 L2307.06 1431.54 Q2309.72 1428.79 2314.3 1424.16 Q2318.91 1419.51 2320.09 1418.16 Q2322.33 1415.64 2323.21 1413.9 Q2324.12 1412.15 2324.12 1410.46 Q2324.12 1407.7 2322.17 1405.97 Q2320.25 1404.23 2317.15 1404.23 Q2314.95 1404.23 2312.5 1404.99 Q2310.07 1405.76 2307.29 1407.31 L2307.29 1402.59 Q2310.11 1401.45 2312.57 1400.87 Q2315.02 1400.29 2317.06 1400.29 Q2322.43 1400.29 2325.62 1402.98 Q2328.81 1405.66 2328.81 1410.15 Q2328.81 1412.28 2328 1414.21 Q2327.22 1416.1 2325.11 1418.7 Q2324.53 1419.37 2321.43 1422.59 Q2318.33 1425.78 2312.68 1431.54 Z" fill="#000000" fill-rule="nonzero" fill-opacity="1" /><path clip-path="url(#clip750)" d="M2862.98 1404.99 L2851.18 1423.44 L2862.98 1423.44 L2862.98 1404.99 M2861.76 1400.92 L2867.64 1400.92 L2867.64 1423.44 L2872.57 1423.44 L2872.57 1427.33 L2867.64 1427.33 L2867.64 1435.48 L2862.98 1435.48 L2862.98 1427.33 L2847.38 1427.33 L2847.38 1422.82 L2861.76 1400.92 Z" fill="#000000" fill-rule="nonzero" fill-opacity="1" /><path clip-path="url(#clip750)" d="M1747.79 1488.34 L1734.9 1505.69 L1748.46 1523.99 L1741.56 1523.99 L1731.18 1509.99 L1720.8 1523.99 L1713.9 1523.99 L1727.74 1505.34 L1715.07 1488.34 L1721.98 1488.34 L1731.43 1501.04 L1740.89 1488.34 L1747.79 1488.34 Z" fill="#000000" fill-rule="nonzero" fill-opacity="1" /><polyline clip-path="url(#clip752)" style="stroke:#000000; stroke-linecap:round; stroke-linejoin:round; stroke-width:2; stroke-opacity:0.1; fill:none" points="324.343,1332.24 3138.02,1332.24 "/>
<polyline clip-path="url(#clip752)" style="stroke:#000000; stroke-linecap:round; stroke-linejoin:round; stroke-width:2; stroke-opacity:0.1; fill:none" points="324.343,1039.45 3138.02,1039.45 "/>
<polyline clip-path="url(#clip752)" style="stroke:#000000; stroke-linecap:round; stroke-linejoin:round; stroke-width:2; stroke-opacity:0.1; fill:none" points="324.343,746.66 3138.02,746.66 "/>
<polyline clip-path="url(#clip752)" style="stroke:#000000; stroke-linecap:round; stroke-linejoin:round; stroke-width:2; stroke-opacity:0.1; fill:none" points="324.343,453.872 3138.02,453.872 "/>
<polyline clip-path="url(#clip752)" style="stroke:#000000; stroke-linecap:round; stroke-linejoin:round; stroke-width:2; stroke-opacity:0.1; fill:none" points="324.343,161.084 3138.02,161.084 "/>
<polyline clip-path="url(#clip750)" style="stroke:#000000; stroke-linecap:round; stroke-linejoin:round; stroke-width:4; stroke-opacity:1; fill:none" points="324.343,1366.17 324.343,125.984 "/>
<polyline clip-path="url(#clip750)" style="stroke:#000000; stroke-linecap:round; stroke-linejoin:round; stroke-width:4; stroke-opacity:1; fill:none" points="324.343,1332.24 343.241,1332.24 "/>
<polyline clip-path="url(#clip750)" style="stroke:#000000; stroke-linecap:round; stroke-linejoin:round; stroke-width:4; stroke-opacity:1; fill:none" points="324.343,1039.45 343.241,1039.45 "/>
<polyline clip-path="url(#clip750)" style="stroke:#000000; stroke-linecap:round; stroke-linejoin:round; stroke-width:4; stroke-opacity:1; fill:none" points="324.343,746.66 343.241,746.66 "/>
<polyline clip-path="url(#clip750)" style="stroke:#000000; stroke-linecap:round; stroke-linejoin:round; stroke-width:4; stroke-opacity:1; fill:none" points="324.343,453.872 343.241,453.872 "/>
<polyline clip-path="url(#clip750)" style="stroke:#000000; stroke-linecap:round; stroke-linejoin:round; stroke-width:4; stroke-opacity:1; fill:none" points="324.343,161.084 343.241,161.084 "/>
<path clip-path="url(#clip750)" d="M188.046 1318.03 Q184.435 1318.03 182.606 1321.6 Q180.801 1325.14 180.801 1332.27 Q180.801 1339.38 182.606 1342.94 Q184.435 1346.48 188.046 1346.48 Q191.68 1346.48 193.486 1342.94 Q195.314 1339.38 195.314 1332.27 Q195.314 1325.14 193.486 1321.6 Q191.68 1318.03 188.046 1318.03 M188.046 1314.33 Q193.856 1314.33 196.912 1318.94 Q199.99 1323.52 199.99 1332.27 Q199.99 1341 196.912 1345.6 Q193.856 1350.19 188.046 1350.19 Q182.236 1350.19 179.157 1345.6 Q176.101 1341 176.101 1332.27 Q176.101 1323.52 179.157 1318.94 Q182.236 1314.33 188.046 1314.33 Z" fill="#000000" fill-rule="nonzero" fill-opacity="1" /><path clip-path="url(#clip750)" d="M208.208 1343.64 L213.092 1343.64 L213.092 1349.52 L208.208 1349.52 L208.208 1343.64 Z" fill="#000000" fill-rule="nonzero" fill-opacity="1" /><path clip-path="url(#clip750)" d="M233.277 1318.03 Q229.666 1318.03 227.837 1321.6 Q226.032 1325.14 226.032 1332.27 Q226.032 1339.38 227.837 1342.94 Q229.666 1346.48 233.277 1346.48 Q236.911 1346.48 238.717 1342.94 Q240.546 1339.38 240.546 1332.27 Q240.546 1325.14 238.717 1321.6 Q236.911 1318.03 233.277 1318.03 M233.277 1314.33 Q239.087 1314.33 242.143 1318.94 Q245.221 1323.52 245.221 1332.27 Q245.221 1341 242.143 1345.6 Q239.087 1350.19 233.277 1350.19 Q227.467 1350.19 224.388 1345.6 Q221.333 1341 221.333 1332.27 Q221.333 1323.52 224.388 1318.94 Q227.467 1314.33 233.277 1314.33 Z" fill="#000000" fill-rule="nonzero" fill-opacity="1" /><path clip-path="url(#clip750)" d="M263.439 1318.03 Q259.828 1318.03 257.999 1321.6 Q256.194 1325.14 256.194 1332.27 Q256.194 1339.38 257.999 1342.94 Q259.828 1346.48 263.439 1346.48 Q267.073 1346.48 268.879 1342.94 Q270.707 1339.38 270.707 1332.27 Q270.707 1325.14 268.879 1321.6 Q267.073 1318.03 263.439 1318.03 M263.439 1314.33 Q269.249 1314.33 272.305 1318.94 Q275.383 1323.52 275.383 1332.27 Q275.383 1341 272.305 1345.6 Q269.249 1350.19 263.439 1350.19 Q257.629 1350.19 254.55 1345.6 Q251.495 1341 251.495 1332.27 Q251.495 1323.52 254.55 1318.94 Q257.629 1314.33 263.439 1314.33 Z" fill="#000000" fill-rule="nonzero" fill-opacity="1" /><path clip-path="url(#clip750)" d="M189.041 1025.25 Q185.43 1025.25 183.601 1028.81 Q181.796 1032.35 181.796 1039.48 Q181.796 1046.59 183.601 1050.15 Q185.43 1053.7 189.041 1053.7 Q192.675 1053.7 194.481 1050.15 Q196.31 1046.59 196.31 1039.48 Q196.31 1032.35 194.481 1028.81 Q192.675 1025.25 189.041 1025.25 M189.041 1021.54 Q194.851 1021.54 197.907 1026.15 Q200.986 1030.73 200.986 1039.48 Q200.986 1048.21 197.907 1052.82 Q194.851 1057.4 189.041 1057.4 Q183.231 1057.4 180.152 1052.82 Q177.097 1048.21 177.097 1039.48 Q177.097 1030.73 180.152 1026.15 Q183.231 1021.54 189.041 1021.54 Z" fill="#000000" fill-rule="nonzero" fill-opacity="1" /><path clip-path="url(#clip750)" d="M209.203 1050.85 L214.087 1050.85 L214.087 1056.73 L209.203 1056.73 L209.203 1050.85 Z" fill="#000000" fill-rule="nonzero" fill-opacity="1" /><path clip-path="url(#clip750)" d="M228.3 1052.79 L244.62 1052.79 L244.62 1056.73 L222.675 1056.73 L222.675 1052.79 Q225.337 1050.04 229.921 1045.41 Q234.527 1040.76 235.708 1039.41 Q237.953 1036.89 238.833 1035.15 Q239.735 1033.39 239.735 1031.7 Q239.735 1028.95 237.791 1027.21 Q235.87 1025.48 232.768 1025.48 Q230.569 1025.48 228.115 1026.24 Q225.685 1027.01 222.907 1028.56 L222.907 1023.83 Q225.731 1022.7 228.185 1022.12 Q230.638 1021.54 232.675 1021.54 Q238.046 1021.54 241.24 1024.23 Q244.434 1026.91 244.434 1031.4 Q244.434 1033.53 243.624 1035.45 Q242.837 1037.35 240.731 1039.95 Q240.152 1040.62 237.05 1043.83 Q233.948 1047.03 228.3 1052.79 Z" fill="#000000" fill-rule="nonzero" fill-opacity="1" /><path clip-path="url(#clip750)" d="M254.481 1022.17 L272.837 1022.17 L272.837 1026.1 L258.763 1026.1 L258.763 1034.58 Q259.782 1034.23 260.8 1034.07 Q261.819 1033.88 262.837 1033.88 Q268.624 1033.88 272.004 1037.05 Q275.383 1040.22 275.383 1045.64 Q275.383 1051.22 271.911 1054.32 Q268.439 1057.4 262.12 1057.4 Q259.944 1057.4 257.675 1057.03 Q255.43 1056.66 253.022 1055.92 L253.022 1051.22 Q255.106 1052.35 257.328 1052.91 Q259.55 1053.46 262.027 1053.46 Q266.032 1053.46 268.37 1051.36 Q270.707 1049.25 270.707 1045.64 Q270.707 1042.03 268.37 1039.92 Q266.032 1037.82 262.027 1037.82 Q260.152 1037.82 258.277 1038.23 Q256.425 1038.65 254.481 1039.53 L254.481 1022.17 Z" fill="#000000" fill-rule="nonzero" fill-opacity="1" /><path clip-path="url(#clip750)" d="M188.046 732.459 Q184.435 732.459 182.606 736.023 Q180.801 739.565 180.801 746.695 Q180.801 753.801 182.606 757.366 Q184.435 760.908 188.046 760.908 Q191.68 760.908 193.486 757.366 Q195.314 753.801 195.314 746.695 Q195.314 739.565 193.486 736.023 Q191.68 732.459 188.046 732.459 M188.046 728.755 Q193.856 728.755 196.912 733.361 Q199.99 737.945 199.99 746.695 Q199.99 755.421 196.912 760.028 Q193.856 764.611 188.046 764.611 Q182.236 764.611 179.157 760.028 Q176.101 755.421 176.101 746.695 Q176.101 737.945 179.157 733.361 Q182.236 728.755 188.046 728.755 Z" fill="#000000" fill-rule="nonzero" fill-opacity="1" /><path clip-path="url(#clip750)" d="M208.208 758.06 L213.092 758.06 L213.092 763.94 L208.208 763.94 L208.208 758.06 Z" fill="#000000" fill-rule="nonzero" fill-opacity="1" /><path clip-path="url(#clip750)" d="M223.323 729.38 L241.68 729.38 L241.68 733.315 L227.606 733.315 L227.606 741.787 Q228.624 741.44 229.643 741.278 Q230.661 741.093 231.68 741.093 Q237.467 741.093 240.847 744.264 Q244.226 747.435 244.226 752.852 Q244.226 758.431 240.754 761.533 Q237.282 764.611 230.962 764.611 Q228.786 764.611 226.518 764.241 Q224.273 763.87 221.865 763.13 L221.865 758.431 Q223.948 759.565 226.171 760.12 Q228.393 760.676 230.87 760.676 Q234.874 760.676 237.212 758.57 Q239.55 756.463 239.55 752.852 Q239.55 749.241 237.212 747.134 Q234.874 745.028 230.87 745.028 Q228.995 745.028 227.12 745.445 Q225.268 745.861 223.323 746.741 L223.323 729.38 Z" fill="#000000" fill-rule="nonzero" fill-opacity="1" /><path clip-path="url(#clip750)" d="M263.439 732.459 Q259.828 732.459 257.999 736.023 Q256.194 739.565 256.194 746.695 Q256.194 753.801 257.999 757.366 Q259.828 760.908 263.439 760.908 Q267.073 760.908 268.879 757.366 Q270.707 753.801 270.707 746.695 Q270.707 739.565 268.879 736.023 Q267.073 732.459 263.439 732.459 M263.439 728.755 Q269.249 728.755 272.305 733.361 Q275.383 737.945 275.383 746.695 Q275.383 755.421 272.305 760.028 Q269.249 764.611 263.439 764.611 Q257.629 764.611 254.55 760.028 Q251.495 755.421 251.495 746.695 Q251.495 737.945 254.55 733.361 Q257.629 728.755 263.439 728.755 Z" fill="#000000" fill-rule="nonzero" fill-opacity="1" /><path clip-path="url(#clip750)" d="M189.041 439.671 Q185.43 439.671 183.601 443.235 Q181.796 446.777 181.796 453.907 Q181.796 461.013 183.601 464.578 Q185.43 468.119 189.041 468.119 Q192.675 468.119 194.481 464.578 Q196.31 461.013 196.31 453.907 Q196.31 446.777 194.481 443.235 Q192.675 439.671 189.041 439.671 M189.041 435.967 Q194.851 435.967 197.907 440.573 Q200.986 445.157 200.986 453.907 Q200.986 462.633 197.907 467.24 Q194.851 471.823 189.041 471.823 Q183.231 471.823 180.152 467.24 Q177.097 462.633 177.097 453.907 Q177.097 445.157 180.152 440.573 Q183.231 435.967 189.041 435.967 Z" fill="#000000" fill-rule="nonzero" fill-opacity="1" /><path clip-path="url(#clip750)" d="M209.203 465.272 L214.087 465.272 L214.087 471.152 L209.203 471.152 L209.203 465.272 Z" fill="#000000" fill-rule="nonzero" fill-opacity="1" /><path clip-path="url(#clip750)" d="M223.092 436.592 L245.314 436.592 L245.314 438.583 L232.768 471.152 L227.884 471.152 L239.689 440.527 L223.092 440.527 L223.092 436.592 Z" fill="#000000" fill-rule="nonzero" fill-opacity="1" /><path clip-path="url(#clip750)" d="M254.481 436.592 L272.837 436.592 L272.837 440.527 L258.763 440.527 L258.763 448.999 Q259.782 448.652 260.8 448.49 Q261.819 448.305 262.837 448.305 Q268.624 448.305 272.004 451.476 Q275.383 454.647 275.383 460.064 Q275.383 465.643 271.911 468.744 Q268.439 471.823 262.12 471.823 Q259.944 471.823 257.675 471.453 Q255.43 471.082 253.022 470.342 L253.022 465.643 Q255.106 466.777 257.328 467.332 Q259.55 467.888 262.027 467.888 Q266.032 467.888 268.37 465.781 Q270.707 463.675 270.707 460.064 Q270.707 456.453 268.37 454.346 Q266.032 452.24 262.027 452.24 Q260.152 452.24 258.277 452.657 Q256.425 453.073 254.481 453.953 L254.481 436.592 Z" fill="#000000" fill-rule="nonzero" fill-opacity="1" /><path clip-path="url(#clip750)" d="M178.856 174.429 L186.495 174.429 L186.495 148.063 L178.185 149.73 L178.185 145.47 L186.449 143.804 L191.125 143.804 L191.125 174.429 L198.763 174.429 L198.763 178.364 L178.856 178.364 L178.856 174.429 Z" fill="#000000" fill-rule="nonzero" fill-opacity="1" /><path clip-path="url(#clip750)" d="M208.208 172.484 L213.092 172.484 L213.092 178.364 L208.208 178.364 L208.208 172.484 Z" fill="#000000" fill-rule="nonzero" fill-opacity="1" /><path clip-path="url(#clip750)" d="M233.277 146.882 Q229.666 146.882 227.837 150.447 Q226.032 153.989 226.032 161.118 Q226.032 168.225 227.837 171.79 Q229.666 175.331 233.277 175.331 Q236.911 175.331 238.717 171.79 Q240.546 168.225 240.546 161.118 Q240.546 153.989 238.717 150.447 Q236.911 146.882 233.277 146.882 M233.277 143.179 Q239.087 143.179 242.143 147.785 Q245.221 152.369 245.221 161.118 Q245.221 169.845 242.143 174.452 Q239.087 179.035 233.277 179.035 Q227.467 179.035 224.388 174.452 Q221.333 169.845 221.333 161.118 Q221.333 152.369 224.388 147.785 Q227.467 143.179 233.277 143.179 Z" fill="#000000" fill-rule="nonzero" fill-opacity="1" /><path clip-path="url(#clip750)" d="M263.439 146.882 Q259.828 146.882 257.999 150.447 Q256.194 153.989 256.194 161.118 Q256.194 168.225 257.999 171.79 Q259.828 175.331 263.439 175.331 Q267.073 175.331 268.879 171.79 Q270.707 168.225 270.707 161.118 Q270.707 153.989 268.879 150.447 Q267.073 146.882 263.439 146.882 M263.439 143.179 Q269.249 143.179 272.305 147.785 Q275.383 152.369 275.383 161.118 Q275.383 169.845 272.305 174.452 Q269.249 179.035 263.439 179.035 Q257.629 179.035 254.55 174.452 Q251.495 169.845 251.495 161.118 Q251.495 152.369 254.55 147.785 Q257.629 143.179 263.439 143.179 Z" fill="#000000" fill-rule="nonzero" fill-opacity="1" /><path clip-path="url(#clip750)" d="M70.649 868.377 L88.5048 868.377 L88.5048 860.292 Q88.5048 855.804 86.1814 853.354 Q83.8579 850.903 79.561 850.903 Q75.296 850.903 72.9725 853.354 Q70.649 855.804 70.649 860.292 L70.649 868.377 M65.3655 874.806 L65.3655 860.292 Q65.3655 852.303 68.9939 848.229 Q72.5906 844.123 79.561 844.123 Q86.5951 844.123 90.1917 848.229 Q93.7884 852.303 93.7884 860.292 L93.7884 868.377 L112.885 868.377 L112.885 874.806 L65.3655 874.806 Z" fill="#000000" fill-rule="nonzero" fill-opacity="1" /><path clip-path="url(#clip750)" d="M63.424 821.684 Q70.7445 825.949 77.9059 828.018 Q85.0674 830.087 92.4197 830.087 Q99.7721 830.087 106.997 828.018 Q114.19 825.917 121.479 821.684 L121.479 826.777 Q113.999 831.551 106.774 833.938 Q99.5493 836.293 92.4197 836.293 Q85.322 836.293 78.1287 833.938 Q70.9355 831.583 63.424 826.777 L63.424 821.684 Z" fill="#000000" fill-rule="nonzero" fill-opacity="1" /><path clip-path="url(#clip750)" d="M65.3655 812.358 L65.3655 805.452 L83.0303 793.643 L65.3655 781.771 L65.3655 774.864 L88.1865 790.142 L112.885 773.846 L112.885 780.753 L92.6744 794.121 L112.885 807.584 L112.885 814.523 L87.5182 797.558 L65.3655 812.358 Z" fill="#000000" fill-rule="nonzero" fill-opacity="1" /><path clip-path="url(#clip750)" d="M80.5477 703.378 L89.3642 733.933 L98.0852 703.378 L103.751 703.378 L92.0378 744.182 L86.627 744.182 L74.9459 703.378 L80.5477 703.378 M107.475 744.182 L107.475 703.378 L112.885 703.378 L112.885 744.182 L107.475 744.182 Z" fill="#000000" fill-rule="nonzero" fill-opacity="1" /><path clip-path="url(#clip750)" d="M77.2375 639.975 L94.5841 652.866 L112.885 639.307 L112.885 646.213 L98.8809 656.59 L112.885 666.966 L112.885 673.872 L94.234 660.027 L77.2375 672.695 L77.2375 665.788 L89.9371 656.335 L77.2375 646.882 L77.2375 639.975 Z" fill="#000000" fill-rule="nonzero" fill-opacity="1" /><path clip-path="url(#clip750)" d="M63.424 631.954 L63.424 626.862 Q70.9355 622.087 78.1287 619.732 Q85.322 617.345 92.4197 617.345 Q99.5493 617.345 106.774 619.732 Q113.999 622.087 121.479 626.862 L121.479 631.954 Q114.19 627.721 106.997 625.652 Q99.7721 623.552 92.4197 623.552 Q85.0674 623.552 77.9059 625.652 Q70.7445 627.721 63.424 631.954 Z" fill="#000000" fill-rule="nonzero" fill-opacity="1" /><polyline clip-path="url(#clip752)" style="stroke:#009af9; stroke-linecap:round; stroke-linejoin:round; stroke-width:4; stroke-opacity:1; fill:none" points="403.976,1331.07 900.23,1329.9 977.696,1328.73 1019.74,1327.56 1049.49,1326.39 1071.23,1325.22 1089.88,1324.05 1106.18,1322.89 1119.94,1321.72 1132.24,1320.55 1143.39,1319.38 1153.52,1318.21 1162.84,1317.04 1171.31,1315.87 1178.99,1314.7 1186.46,1313.54 1193,1312.37 1199.97,1311.2 1206.16,1310.03 1212.28,1308.86 1217.99,1307.69 1223.52,1306.52 1228.89,1305.35 1233.97,1304.18 1238.93,1303.02 1243.73,1301.85 1248.5,1300.68 1252.91,1299.51 1257.17,1298.34 1261.25,1297.17 1265.11,1296 1269.08,1294.83 1272.96,1293.67 1276.96,1292.5 1280.66,1291.33 1284.23,1290.16 1287.82,1288.99 1291.26,1287.82 1294.6,1286.65 1297.86,1285.48 1301.1,1284.31 1304.24,1283.15 1307.25,1281.98 1310.21,1280.81 1313.14,1279.64 1316.1,1278.47 1318.89,1277.3 1321.72,1276.13 1324.51,1274.96 1327.39,1273.8 1330.16,1272.63 1332.74,1271.46 1335.35,1270.29 1337.92,1269.12 1340.45,1267.95 1342.86,1266.78 1345.23,1265.61 1347.62,1264.44 1349.81,1263.28 1352.08,1262.11 1354.21,1260.94 1356.62,1259.77 1358.92,1258.6 1361.07,1257.43 1363.26,1256.26 1365.38,1255.09 1367.56,1253.93 1369.7,1252.76 1371.85,1251.59 1374.02,1250.42 1376.08,1249.25 1378.11,1248.08 1380.09,1246.91 1381.99,1245.74 1383.88,1244.57 1385.87,1243.41 1387.8,1242.24 1389.65,1241.07 1391.56,1239.9 1393.58,1238.73 1395.28,1237.56 1397.03,1236.39 1398.83,1235.22 1400.63,1234.06 1402.43,1232.89 1404.22,1231.72 1405.9,1230.55 1407.49,1229.38 1409.19,1228.21 1410.85,1227.04 1412.57,1225.87 1414.17,1224.71 1415.8,1223.54 1417.38,1222.37 1419.05,1221.2 1420.76,1220.03 1422.47,1218.86 1424.01,1217.69 1425.58,1216.52 1427.11,1215.35 1428.63,1214.19 1430.15,1213.02 1431.65,1211.85 1433.12,1210.68 1434.63,1209.51 1436.14,1208.34 1437.62,1207.17 1439.13,1206 1440.64,1204.84 1442.01,1203.67 1443.54,1202.5 1444.96,1201.33 1446.34,1200.16 1447.73,1198.99 1449.12,1197.82 1450.41,1196.65 1451.83,1195.48 1453.23,1194.32 1454.55,1193.15 1455.91,1191.98 1457.23,1190.81 1458.58,1189.64 1459.83,1188.47 1461.18,1187.3 1462.52,1186.13 1463.83,1184.97 1465.18,1183.8 1466.53,1182.63 1467.87,1181.46 1469.13,1180.29 1470.37,1179.12 1471.65,1177.95 1472.9,1176.78 1474.16,1175.61 1475.47,1174.45 1476.68,1173.28 1477.95,1172.11 1479.16,1170.94 1480.45,1169.77 1481.67,1168.6 1482.95,1167.43 1484.11,1166.26 1485.24,1165.1 1486.48,1163.93 1487.63,1162.76 1488.87,1161.59 1490.04,1160.42 1491.24,1159.25 1492.41,1158.08 1493.61,1156.91 1494.77,1155.75 1495.9,1154.58 1497.01,1153.41 1498.14,1152.24 1499.26,1151.07 1500.34,1149.9 1501.45,1148.73 1502.57,1147.56 1503.72,1146.39 1504.85,1145.23 1506.02,1144.06 1507.17,1142.89 1508.26,1141.72 1509.38,1140.55 1510.45,1139.38 1511.54,1138.21 1512.67,1137.04 1513.77,1135.88 1514.87,1134.71 1515.94,1133.54 1516.99,1132.37 1518.09,1131.2 1519.17,1130.03 1520.21,1128.86 1521.28,1127.69 1522.31,1126.52 1523.41,1125.36 1524.46,1124.19 1525.51,1123.02 1526.51,1121.85 1527.57,1120.68 1528.63,1119.51 1529.68,1118.34 1530.72,1117.17 1531.72,1116.01 1532.76,1114.84 1533.77,1113.67 1534.74,1112.5 1535.75,1111.33 1536.76,1110.16 1537.73,1108.99 1538.73,1107.82 1539.74,1106.65 1540.71,1105.49 1541.68,1104.32 1542.7,1103.15 1543.7,1101.98 1544.68,1100.81 1545.62,1099.64 1546.6,1098.47 1547.55,1097.3 1548.57,1096.14 1549.58,1094.97 1550.53,1093.8 1551.54,1092.63 1552.46,1091.46 1553.43,1090.29 1554.42,1089.12 1555.34,1087.95 1556.29,1086.78 1557.23,1085.62 1558.19,1084.45 1559.14,1083.28 1560.03,1082.11 1560.93,1080.94 1561.86,1079.77 1562.79,1078.6 1563.7,1077.43 1564.6,1076.27 1565.46,1075.1 1566.35,1073.93 1567.24,1072.76 1568.19,1071.59 1569.11,1070.42 1570.04,1069.25 1570.97,1068.08 1571.87,1066.92 1572.74,1065.75 1573.63,1064.58 1574.56,1063.41 1575.51,1062.24 1576.41,1061.07 1577.32,1059.9 1578.2,1058.73 1579.1,1057.56 1579.96,1056.4 1580.84,1055.23 1581.73,1054.06 1582.61,1052.89 1583.48,1051.72 1584.39,1050.55 1585.31,1049.38 1586.21,1048.21 1587.08,1047.05 1587.93,1045.88 1588.81,1044.71 1589.64,1043.54 1590.53,1042.37 1591.39,1041.2 1592.23,1040.03 1593.07,1038.86 1593.91,1037.69 1594.75,1036.53 1595.61,1035.36 1596.44,1034.19 1597.28,1033.02 1598.11,1031.85 1598.93,1030.68 1599.81,1029.51 1600.68,1028.34 1601.53,1027.18 1602.37,1026.01 1603.19,1024.84 1604.07,1023.67 1604.93,1022.5 1605.75,1021.33 1606.56,1020.16 1607.4,1018.99 1608.19,1017.82 1609.02,1016.66 1609.81,1015.49 1610.59,1014.32 1611.42,1013.15 1612.21,1011.98 1613.04,1010.81 1613.8,1009.64 1614.62,1008.47 1615.39,1007.31 1616.22,1006.14 1617.04,1004.97 1617.85,1003.8 1618.66,1002.63 1619.46,1001.46 1620.23,1000.29 1621.02,999.124 1621.86,997.955 1622.66,996.786 1623.44,995.617 1624.24,994.449 1625.04,993.28 1625.84,992.111 1626.68,990.942 1627.5,989.773 1628.26,988.605 1629.02,987.436 1629.83,986.267 1630.63,985.098 1631.45,983.929 1632.21,982.76 1633.01,981.592 1633.8,980.423 1634.57,979.254 1635.3,978.085 1636.08,976.916 1636.84,975.748 1637.61,974.579 1638.37,973.41 1639.07,972.241 1639.81,971.072 1640.62,969.904 1641.37,968.735 1642.12,967.566 1642.85,966.397 1643.6,965.228 1644.36,964.059 1645.13,962.891 1645.9,961.722 1646.63,960.553 1647.39,959.384 1648.12,958.215 1648.89,957.047 1649.64,955.878 1650.43,954.709 1651.18,953.54 1651.93,952.371 1652.69,951.202 1653.4,950.034 1654.15,948.865 1654.91,947.696 1655.68,946.527 1656.45,945.358 1657.21,944.19 1657.97,943.021 1658.72,941.852 1659.44,940.683 1660.22,939.514 1660.98,938.346 1661.72,937.177 1662.44,936.008 1663.19,934.839 1663.92,933.67 1664.64,932.501 1665.36,931.333 1666.09,930.164 1666.8,928.995 1667.51,927.826 1668.26,926.657 1668.98,925.489 1669.74,924.32 1670.46,923.151 1671.2,921.982 1671.95,920.813 1672.67,919.644 1673.38,918.476 1674.12,917.307 1674.87,916.138 1675.59,914.969 1676.32,913.8 1677.05,912.632 1677.79,911.463 1678.54,910.294 1679.26,909.125 1679.98,907.956 1680.71,906.788 1681.46,905.619 1682.15,904.45 1682.86,903.281 1683.54,902.112 1684.27,900.943 1685,899.775 1685.72,898.606 1686.49,897.437 1687.21,896.268 1687.94,895.099 1688.64,893.931 1689.37,892.762 1690.09,891.593 1690.83,890.424 1691.57,889.255 1692.34,888.086 1693.05,886.918 1693.77,885.749 1694.5,884.58 1695.22,883.411 1695.93,882.242 1696.66,881.074 1697.35,879.905 1698.06,878.736 1698.77,877.567 1699.49,876.398 1700.2,875.23 1700.89,874.061 1701.59,872.892 1702.3,871.723 1703,870.554 1703.71,869.385 1704.41,868.217 1705.14,867.048 1705.83,865.879 1706.53,864.71 1707.24,863.541 1707.94,862.373 1708.66,861.204 1709.37,860.035 1710.09,858.866 1710.82,857.697 1711.48,856.528 1712.16,855.36 1712.88,854.191 1713.58,853.022 1714.29,851.853 1715.01,850.684 1715.74,849.516 1716.41,848.347 1717.12,847.178 1717.82,846.009 1718.51,844.84 1719.21,843.672 1719.92,842.503 1720.6,841.334 1721.3,840.165 1722.02,838.996 1722.69,837.827 1723.39,836.659 1724.09,835.49 1724.81,834.321 1725.5,833.152 1726.18,831.983 1726.87,830.815 1727.56,829.646 1728.24,828.477 1728.96,827.308 1729.67,826.139 1730.39,824.97 1731.06,823.802 1731.78,822.633 1732.49,821.464 1733.21,820.295 1733.91,819.126 1734.58,817.958 1735.23,816.789 1735.91,815.62 1736.58,814.451 1737.26,813.282 1737.95,812.114 1738.66,810.945 1739.34,809.776 1740.02,808.607 1740.72,807.438 1741.41,806.269 1742.12,805.101 1742.78,803.932 1743.5,802.763 1744.2,801.594 1744.9,800.425 1745.6,799.257 1746.27,798.088 1747,796.919 1747.72,795.75 1748.38,794.581 1749.03,793.412 1749.74,792.244 1750.44,791.075 1751.12,789.906 1751.82,788.737 1752.51,787.568 1753.18,786.4 1753.85,785.231 1754.53,784.062 1755.22,782.893 1755.89,781.724 1756.53,780.556 1757.2,779.387 1757.85,778.218 1758.55,777.049 1759.2,775.88 1759.85,774.711 1760.52,773.543 1761.17,772.374 1761.85,771.205 1762.49,770.036 1763.18,768.867 1763.88,767.699 1764.59,766.53 1765.29,765.361 1765.96,764.192 1766.65,763.023 1767.33,761.854 1767.99,760.686 1768.7,759.517 1769.38,758.348 1770.1,757.179 1770.74,756.01 1771.45,754.842 1772.16,753.673 1772.85,752.504 1773.51,751.335 1774.19,750.166 1774.83,748.998 1775.49,747.829 1776.14,746.66 1776.76,745.491 1777.45,744.322 1778.11,743.153 1778.78,741.985 1779.46,740.816 1780.14,739.647 1780.82,738.478 1781.5,737.309 1782.18,736.141 1782.86,734.972 1783.58,733.803 1784.27,732.634 1784.96,731.465 1785.65,730.296 1786.32,729.128 1786.98,727.959 1787.68,726.79 1788.34,725.621 1789.07,724.452 1789.76,723.284 1790.46,722.115 1791.14,720.946 1791.82,719.777 1792.49,718.608 1793.18,717.44 1793.86,716.271 1794.54,715.102 1795.23,713.933 1795.9,712.764 1796.57,711.595 1797.27,710.427 1797.94,709.258 1798.66,708.089 1799.33,706.92 1800.03,705.751 1800.74,704.583 1801.42,703.414 1802.09,702.245 1802.78,701.076 1803.46,699.907 1804.18,698.739 1804.85,697.57 1805.5,696.401 1806.21,695.232 1806.89,694.063 1807.56,692.894 1808.23,691.726 1808.92,690.557 1809.57,689.388 1810.27,688.219 1810.99,687.05 1811.66,685.882 1812.34,684.713 1813.05,683.544 1813.73,682.375 1814.39,681.206 1815.08,680.037 1815.74,678.869 1816.43,677.7 1817.09,676.531 1817.77,675.362 1818.48,674.193 1819.17,673.025 1819.85,671.856 1820.55,670.687 1821.23,669.518 1821.94,668.349 1822.63,667.181 1823.32,666.012 1824.04,664.843 1824.77,663.674 1825.47,662.505 1826.19,661.336 1826.9,660.168 1827.64,658.999 1828.34,657.83 1829.04,656.661 1829.68,655.492 1830.34,654.324 1831.03,653.155 1831.72,651.986 1832.42,650.817 1833.1,649.648 1833.78,648.479 1834.5,647.311 1835.22,646.142 1835.92,644.973 1836.6,643.804 1837.26,642.635 1837.97,641.467 1838.66,640.298 1839.33,639.129 1840.03,637.96 1840.74,636.791 1841.4,635.623 1842.09,634.454 1842.83,633.285 1843.49,632.116 1844.19,630.947 1844.88,629.778 1845.54,628.61 1846.21,627.441 1846.93,626.272 1847.63,625.103 1848.32,623.934 1849.03,622.766 1849.76,621.597 1850.48,620.428 1851.15,619.259 1851.91,618.09 1852.61,616.921 1853.33,615.753 1854.07,614.584 1854.83,613.415 1855.59,612.246 1856.29,611.077 1857.01,609.909 1857.69,608.74 1858.37,607.571 1859.06,606.402 1859.77,605.233 1860.46,604.065 1861.17,602.896 1861.85,601.727 1862.58,600.558 1863.31,599.389 1864.02,598.22 1864.7,597.052 1865.42,595.883 1866.13,594.714 1866.85,593.545 1867.58,592.376 1868.28,591.208 1869,590.039 1869.73,588.87 1870.46,587.701 1871.22,586.532 1871.9,585.363 1872.59,584.195 1873.31,583.026 1874.02,581.857 1874.72,580.688 1875.46,579.519 1876.15,578.351 1876.87,577.182 1877.61,576.013 1878.31,574.844 1879.05,573.675 1879.79,572.507 1880.51,571.338 1881.28,570.169 1882,569 1882.69,567.831 1883.45,566.662 1884.19,565.494 1884.89,564.325 1885.62,563.156 1886.36,561.987 1887.12,560.818 1887.86,559.65 1888.55,558.481 1889.31,557.312 1890.04,556.143 1890.78,554.974 1891.57,553.805 1892.36,552.637 1893.09,551.468 1893.8,550.299 1894.5,549.13 1895.24,547.961 1896,546.793 1896.73,545.624 1897.48,544.455 1898.18,543.286 1898.94,542.117 1899.72,540.949 1900.51,539.78 1901.3,538.611 1902.05,537.442 1902.81,536.273 1903.55,535.104 1904.34,533.936 1905.09,532.767 1905.85,531.598 1906.61,530.429 1907.4,529.26 1908.18,528.092 1908.96,526.923 1909.71,525.754 1910.48,524.585 1911.25,523.416 1911.98,522.247 1912.77,521.079 1913.57,519.91 1914.37,518.741 1915.15,517.572 1915.94,516.403 1916.76,515.235 1917.51,514.066 1918.29,512.897 1919.08,511.728 1919.87,510.559 1920.68,509.391 1921.43,508.222 1922.24,507.053 1923.03,505.884 1923.85,504.715 1924.67,503.546 1925.45,502.378 1926.22,501.209 1927,500.04 1927.84,498.871 1928.63,497.702 1929.38,496.534 1930.19,495.365 1930.97,494.196 1931.77,493.027 1932.62,491.858 1933.42,490.689 1934.21,489.521 1934.99,488.352 1935.81,487.183 1936.59,486.014 1937.43,484.845 1938.21,483.677 1939.06,482.508 1939.89,481.339 1940.72,480.17 1941.56,479.001 1942.38,477.833 1943.22,476.664 1944.04,475.495 1944.85,474.326 1945.7,473.157 1946.52,471.988 1947.36,470.82 1948.2,469.651 1949,468.482 1949.85,467.313 1950.72,466.144 1951.5,464.976 1952.32,463.807 1953.13,462.638 1953.98,461.469 1954.87,460.3 1955.73,459.131 1956.62,457.963 1957.5,456.794 1958.34,455.625 1959.16,454.456 1960.04,453.287 1960.88,452.119 1961.73,450.95 1962.59,449.781 1963.42,448.612 1964.23,447.443 1965.09,446.275 1965.96,445.106 1966.83,443.937 1967.65,442.768 1968.51,441.599 1969.34,440.43 1970.22,439.262 1971.07,438.093 1971.97,436.924 1972.82,435.755 1973.72,434.586 1974.59,433.418 1975.52,432.249 1976.4,431.08 1977.28,429.911 1978.14,428.742 1979.05,427.574 1980.02,426.405 1980.9,425.236 1981.77,424.067 1982.67,422.898 1983.62,421.729 1984.54,420.561 1985.44,419.392 1986.34,418.223 1987.23,417.054 1988.14,415.885 1989.16,414.717 1990.11,413.548 1991.02,412.379 1991.93,411.21 1992.83,410.041 1993.8,408.872 1994.7,407.704 1995.69,406.535 1996.63,405.366 1997.55,404.197 1998.49,403.028 1999.42,401.86 2000.32,400.691 2001.24,399.522 2002.21,398.353 2003.2,397.184 2004.17,396.016 2005.23,394.847 2006.12,393.678 2007.09,392.509 2008.06,391.34 2009,390.171 2010,389.003 2010.99,387.834 2011.97,386.665 2012.95,385.496 2013.93,384.327 2014.93,383.159 2015.89,381.99 2016.92,380.821 2017.82,379.652 2018.9,378.483 2019.89,377.314 2020.94,376.146 2021.96,374.977 2022.94,373.808 2023.97,372.639 2025.04,371.47 2026.06,370.302 2027.04,369.133 2028.06,367.964 2029.15,366.795 2030.21,365.626 2031.33,364.458 2032.34,363.289 2033.35,362.12 2034.38,360.951 2035.44,359.782 2036.51,358.613 2037.6,357.445 2038.73,356.276 2039.78,355.107 2040.83,353.938 2042,352.769 2043.1,351.601 2044.16,350.432 2045.31,349.263 2046.43,348.094 2047.59,346.925 2048.75,345.756 2049.91,344.588 2051.01,343.419 2052.14,342.25 2053.22,341.081 2054.45,339.912 2055.59,338.744 2056.73,337.575 2057.86,336.406 2058.93,335.237 2060.09,334.068 2061.25,332.9 2062.37,331.731 2063.53,330.562 2064.66,329.393 2065.83,328.224 2067,327.055 2068.23,325.887 2069.49,324.718 2070.8,323.549 2072.04,322.38 2073.23,321.211 2074.43,320.043 2075.72,318.874 2076.97,317.705 2078.18,316.536 2079.48,315.367 2080.73,314.198 2081.95,313.03 2083.2,311.861 2084.49,310.692 2085.84,309.523 2087.21,308.354 2088.49,307.186 2089.82,306.017 2091.22,304.848 2092.55,303.679 2093.97,302.51 2095.47,301.342 2096.83,300.173 2098.17,299.004 2099.52,297.835 2100.96,296.666 2102.31,295.497 2103.7,294.329 2105.08,293.16 2106.47,291.991 2107.89,290.822 2109.34,289.653 2110.77,288.485 2112.22,287.316 2113.69,286.147 2115.19,284.978 2116.6,283.809 2118.09,282.64 2119.57,281.472 2121.17,280.303 2122.7,279.134 2124.18,277.965 2125.73,276.796 2127.28,275.628 2128.87,274.459 2130.46,273.29 2132.09,272.121 2133.69,270.952 2135.31,269.784 2136.97,268.615 2138.67,267.446 2140.29,266.277 2141.94,265.108 2143.64,263.939 2145.33,262.771 2147.06,261.602 2148.77,260.433 2150.42,259.264 2152.13,258.095 2154.01,256.927 2155.84,255.758 2157.6,254.589 2159.5,253.42 2161.41,252.251 2163.32,251.082 2165.2,249.914 2167.16,248.745 2169.11,247.576 2171.07,246.407 2172.99,245.238 2174.95,244.07 2177.01,242.901 2179,241.732 2181.03,240.563 2183.05,239.394 2185.17,238.226 2187.3,237.057 2189.5,235.888 2191.7,234.719 2193.86,233.55 2196.11,232.381 2198.29,231.213 2200.57,230.044 2202.93,228.875 2205.21,227.706 2207.62,226.537 2209.98,225.369 2212.44,224.2 2214.86,223.031 2217.19,221.862 2219.75,220.693 2222.45,219.524 2225.14,218.356 2227.95,217.187 2230.61,216.018 2233.43,214.849 2236.31,213.68 2239.04,212.512 2242,211.343 2244.91,210.174 2247.93,209.005 2251.02,207.836 2254.25,206.668 2257.44,205.499 2260.84,204.33 2264.26,203.161 2267.75,201.992 2271.15,200.823 2274.69,199.655 2278.5,198.486 2282.28,197.317 2286.26,196.148 2290.24,194.979 2294.75,193.811 2299.09,192.642 2303.43,191.473 2308.06,190.304 2313,189.135 2317.97,187.966 2323.05,186.798 2328.61,185.629 2334.2,184.46 2340.18,183.291 2346.08,182.122 2352.51,180.954 2359.02,179.785 2366.14,178.616 2373.3,177.447 2381.22,176.278 2390.09,175.11 2399.24,173.941 2409.06,172.772 2420.67,171.603 2432.73,170.434 2446.29,169.265 2462.54,168.097 2480.27,166.928 2504.33,165.759 2532.07,164.59 2574.92,163.421 2651.05,162.253 3058.38,161.084 "/>
<path clip-path="url(#clip750)" d="M418.132 271.004 L1467.74 271.004 L1467.74 167.324 L418.132 167.324  Z" fill="#ffffff" fill-rule="evenodd" fill-opacity="1"/>
<polyline clip-path="url(#clip750)" style="stroke:#000000; stroke-linecap:round; stroke-linejoin:round; stroke-width:4; stroke-opacity:1; fill:none" points="418.132,271.004 1467.74,271.004 1467.74,167.324 418.132,167.324 418.132,271.004 "/>
<polyline clip-path="url(#clip750)" style="stroke:#009af9; stroke-linecap:round; stroke-linejoin:round; stroke-width:4; stroke-opacity:1; fill:none" points="449.395,219.164 636.974,219.164 "/>
<path clip-path="url(#clip750)" d="M684.07 206.49 L677.727 223.689 L690.436 223.689 L684.07 206.49 M681.431 201.884 L686.732 201.884 L699.903 236.444 L695.042 236.444 L691.894 227.578 L676.315 227.578 L673.167 236.444 L668.237 236.444 L681.431 201.884 Z" fill="#000000" fill-rule="nonzero" fill-opacity="1" /><path clip-path="url(#clip750)" d="M708.885 232.555 L708.885 246.305 L704.602 246.305 L704.602 210.518 L708.885 210.518 L708.885 214.453 Q710.227 212.138 712.264 211.027 Q714.324 209.893 717.172 209.893 Q721.894 209.893 724.834 213.643 Q727.797 217.393 727.797 223.504 Q727.797 229.615 724.834 233.365 Q721.894 237.115 717.172 237.115 Q714.324 237.115 712.264 236.004 Q710.227 234.87 708.885 232.555 M723.375 223.504 Q723.375 218.805 721.431 216.143 Q719.51 213.458 716.13 213.458 Q712.75 213.458 710.806 216.143 Q708.885 218.805 708.885 223.504 Q708.885 228.203 710.806 230.888 Q712.75 233.55 716.13 233.55 Q719.51 233.55 721.431 230.888 Q723.375 228.203 723.375 223.504 Z" fill="#000000" fill-rule="nonzero" fill-opacity="1" /><path clip-path="url(#clip750)" d="M738.977 232.555 L738.977 246.305 L734.695 246.305 L734.695 210.518 L738.977 210.518 L738.977 214.453 Q740.32 212.138 742.357 211.027 Q744.417 209.893 747.264 209.893 Q751.986 209.893 754.926 213.643 Q757.889 217.393 757.889 223.504 Q757.889 229.615 754.926 233.365 Q751.986 237.115 747.264 237.115 Q744.417 237.115 742.357 236.004 Q740.32 234.87 738.977 232.555 M753.468 223.504 Q753.468 218.805 751.523 216.143 Q749.602 213.458 746.222 213.458 Q742.843 213.458 740.898 216.143 Q738.977 218.805 738.977 223.504 Q738.977 228.203 740.898 230.888 Q742.843 233.55 746.222 233.55 Q749.602 233.55 751.523 230.888 Q753.468 228.203 753.468 223.504 Z" fill="#000000" fill-rule="nonzero" fill-opacity="1" /><path clip-path="url(#clip750)" d="M779.972 214.499 Q779.255 214.083 778.398 213.897 Q777.565 213.689 776.546 213.689 Q772.935 213.689 770.991 216.05 Q769.069 218.388 769.069 222.786 L769.069 236.444 L764.787 236.444 L764.787 210.518 L769.069 210.518 L769.069 214.546 Q770.412 212.185 772.565 211.05 Q774.718 209.893 777.796 209.893 Q778.236 209.893 778.768 209.962 Q779.301 210.009 779.949 210.124 L779.972 214.499 Z" fill="#000000" fill-rule="nonzero" fill-opacity="1" /><path clip-path="url(#clip750)" d="M793.444 213.504 Q790.018 213.504 788.028 216.189 Q786.037 218.851 786.037 223.504 Q786.037 228.157 788.005 230.842 Q789.995 233.504 793.444 233.504 Q796.847 233.504 798.838 230.819 Q800.829 228.134 800.829 223.504 Q800.829 218.897 798.838 216.212 Q796.847 213.504 793.444 213.504 M793.444 209.893 Q799 209.893 802.171 213.504 Q805.342 217.115 805.342 223.504 Q805.342 229.87 802.171 233.504 Q799 237.115 793.444 237.115 Q787.866 237.115 784.694 233.504 Q781.546 229.87 781.546 223.504 Q781.546 217.115 784.694 213.504 Q787.866 209.893 793.444 209.893 Z" fill="#000000" fill-rule="nonzero" fill-opacity="1" /><path clip-path="url(#clip750)" d="M832.495 210.518 L823.12 223.134 L832.981 236.444 L827.958 236.444 L820.412 226.259 L812.866 236.444 L807.842 236.444 L817.912 222.879 L808.699 210.518 L813.722 210.518 L820.597 219.754 L827.472 210.518 L832.495 210.518 Z" fill="#000000" fill-rule="nonzero" fill-opacity="1" /><path clip-path="url(#clip750)" d="M839 210.518 L843.259 210.518 L843.259 236.444 L839 236.444 L839 210.518 M839 200.425 L843.259 200.425 L843.259 205.819 L839 205.819 L839 200.425 Z" fill="#000000" fill-rule="nonzero" fill-opacity="1" /><path clip-path="url(#clip750)" d="M872.356 215.495 Q873.953 212.624 876.175 211.259 Q878.398 209.893 881.407 209.893 Q885.458 209.893 887.657 212.74 Q889.856 215.564 889.856 220.796 L889.856 236.444 L885.573 236.444 L885.573 220.934 Q885.573 217.208 884.254 215.402 Q882.935 213.597 880.226 213.597 Q876.916 213.597 874.995 215.796 Q873.074 217.995 873.074 221.791 L873.074 236.444 L868.791 236.444 L868.791 220.934 Q868.791 217.185 867.472 215.402 Q866.152 213.597 863.398 213.597 Q860.134 213.597 858.212 215.819 Q856.291 218.018 856.291 221.791 L856.291 236.444 L852.009 236.444 L852.009 210.518 L856.291 210.518 L856.291 214.546 Q857.75 212.161 859.787 211.027 Q861.824 209.893 864.624 209.893 Q867.449 209.893 869.416 211.328 Q871.407 212.763 872.356 215.495 Z" fill="#000000" fill-rule="nonzero" fill-opacity="1" /><path clip-path="url(#clip750)" d="M910.134 223.411 Q904.972 223.411 902.981 224.592 Q900.99 225.772 900.99 228.62 Q900.99 230.888 902.472 232.231 Q903.976 233.55 906.546 233.55 Q910.087 233.55 912.217 231.05 Q914.37 228.527 914.37 224.36 L914.37 223.411 L910.134 223.411 M918.629 221.652 L918.629 236.444 L914.37 236.444 L914.37 232.509 Q912.911 234.87 910.735 236.004 Q908.559 237.115 905.411 237.115 Q901.43 237.115 899.069 234.893 Q896.731 232.647 896.731 228.897 Q896.731 224.522 899.647 222.3 Q902.587 220.078 908.397 220.078 L914.37 220.078 L914.37 219.661 Q914.37 216.722 912.425 215.124 Q910.504 213.504 907.009 213.504 Q904.786 213.504 902.68 214.036 Q900.573 214.569 898.629 215.634 L898.629 211.698 Q900.967 210.796 903.166 210.356 Q905.365 209.893 907.448 209.893 Q913.073 209.893 915.851 212.81 Q918.629 215.726 918.629 221.652 Z" fill="#000000" fill-rule="nonzero" fill-opacity="1" /><path clip-path="url(#clip750)" d="M931.615 203.157 L931.615 210.518 L940.388 210.518 L940.388 213.828 L931.615 213.828 L931.615 227.902 Q931.615 231.073 932.471 231.976 Q933.351 232.879 936.013 232.879 L940.388 232.879 L940.388 236.444 L936.013 236.444 Q931.082 236.444 929.207 234.615 Q927.332 232.763 927.332 227.902 L927.332 213.828 L924.208 213.828 L924.208 210.518 L927.332 210.518 L927.332 203.157 L931.615 203.157 Z" fill="#000000" fill-rule="nonzero" fill-opacity="1" /><path clip-path="url(#clip750)" d="M968.166 222.416 L968.166 224.499 L948.582 224.499 Q948.86 228.897 951.221 231.212 Q953.605 233.504 957.842 233.504 Q960.295 233.504 962.587 232.902 Q964.902 232.3 967.17 231.096 L967.17 235.124 Q964.879 236.096 962.471 236.606 Q960.064 237.115 957.587 237.115 Q951.383 237.115 947.749 233.504 Q944.138 229.893 944.138 223.735 Q944.138 217.37 947.564 213.643 Q951.013 209.893 956.846 209.893 Q962.078 209.893 965.11 213.272 Q968.166 216.629 968.166 222.416 M963.906 221.166 Q963.86 217.671 961.939 215.587 Q960.041 213.504 956.893 213.504 Q953.328 213.504 951.175 215.518 Q949.045 217.532 948.721 221.189 L963.906 221.166 Z" fill="#000000" fill-rule="nonzero" fill-opacity="1" /><path clip-path="url(#clip750)" d="M1016.29 204.546 L1016.29 209.476 Q1013.93 207.277 1011.24 206.189 Q1008.58 205.101 1005.57 205.101 Q999.647 205.101 996.499 208.735 Q993.351 212.347 993.351 219.198 Q993.351 226.027 996.499 229.661 Q999.647 233.272 1005.57 233.272 Q1008.58 233.272 1011.24 232.184 Q1013.93 231.096 1016.29 228.897 L1016.29 233.782 Q1013.84 235.448 1011.08 236.282 Q1008.35 237.115 1005.3 237.115 Q997.448 237.115 992.934 232.323 Q988.42 227.509 988.42 219.198 Q988.42 210.865 992.934 206.073 Q997.448 201.259 1005.3 201.259 Q1008.4 201.259 1011.13 202.092 Q1013.88 202.902 1016.29 204.546 Z" fill="#000000" fill-rule="nonzero" fill-opacity="1" /><path clip-path="url(#clip750)" d="M1028.19 205.726 L1028.19 232.601 L1033.84 232.601 Q1040.99 232.601 1044.3 229.36 Q1047.63 226.12 1047.63 219.129 Q1047.63 212.185 1044.3 208.967 Q1040.99 205.726 1033.84 205.726 L1028.19 205.726 M1023.51 201.884 L1033.12 201.884 Q1043.17 201.884 1047.86 206.073 Q1052.56 210.24 1052.56 219.129 Q1052.56 228.064 1047.84 232.254 Q1043.12 236.444 1033.12 236.444 L1023.51 236.444 L1023.51 201.884 Z" fill="#000000" fill-rule="nonzero" fill-opacity="1" /><path clip-path="url(#clip750)" d="M1060.02 201.884 L1079.88 201.884 L1079.88 205.819 L1064.69 205.819 L1064.69 216.004 L1078.4 216.004 L1078.4 219.939 L1064.69 219.939 L1064.69 236.444 L1060.02 236.444 L1060.02 201.884 Z" fill="#000000" fill-rule="nonzero" fill-opacity="1" /><path clip-path="url(#clip750)" d="M1099.11 210.518 L1103.63 210.518 L1111.73 232.277 L1119.83 210.518 L1124.35 210.518 L1114.62 236.444 L1108.84 236.444 L1099.11 210.518 Z" fill="#000000" fill-rule="nonzero" fill-opacity="1" /><path clip-path="url(#clip750)" d="M1130.22 210.518 L1134.48 210.518 L1134.48 236.444 L1130.22 236.444 L1130.22 210.518 M1130.22 200.425 L1134.48 200.425 L1134.48 205.819 L1130.22 205.819 L1130.22 200.425 Z" fill="#000000" fill-rule="nonzero" fill-opacity="1" /><path clip-path="url(#clip750)" d="M1155.18 223.411 Q1150.02 223.411 1148.03 224.592 Q1146.04 225.772 1146.04 228.62 Q1146.04 230.888 1147.52 232.231 Q1149.02 233.55 1151.59 233.55 Q1155.13 233.55 1157.26 231.05 Q1159.41 228.527 1159.41 224.36 L1159.41 223.411 L1155.18 223.411 M1163.67 221.652 L1163.67 236.444 L1159.41 236.444 L1159.41 232.509 Q1157.96 234.87 1155.78 236.004 Q1153.6 237.115 1150.46 237.115 Q1146.47 237.115 1144.11 234.893 Q1141.78 232.647 1141.78 228.897 Q1141.78 224.522 1144.69 222.3 Q1147.63 220.078 1153.44 220.078 L1159.41 220.078 L1159.41 219.661 Q1159.41 216.722 1157.47 215.124 Q1155.55 213.504 1152.05 213.504 Q1149.83 213.504 1147.72 214.036 Q1145.62 214.569 1143.67 215.634 L1143.67 211.698 Q1146.01 210.796 1148.21 210.356 Q1150.41 209.893 1152.49 209.893 Q1158.12 209.893 1160.9 212.81 Q1163.67 215.726 1163.67 221.652 Z" fill="#000000" fill-rule="nonzero" fill-opacity="1" /><path clip-path="url(#clip750)" d="M1201.73 205.055 Q1196.64 205.055 1193.63 208.851 Q1190.64 212.647 1190.64 219.198 Q1190.64 225.726 1193.63 229.522 Q1196.64 233.319 1201.73 233.319 Q1206.82 233.319 1209.78 229.522 Q1212.77 225.726 1212.77 219.198 Q1212.77 212.647 1209.78 208.851 Q1206.82 205.055 1201.73 205.055 M1201.73 201.259 Q1209 201.259 1213.35 206.143 Q1217.7 211.004 1217.7 219.198 Q1217.7 227.37 1213.35 232.254 Q1209 237.115 1201.73 237.115 Q1194.44 237.115 1190.06 232.254 Q1185.71 227.393 1185.71 219.198 Q1185.71 211.004 1190.06 206.143 Q1194.44 201.259 1201.73 201.259 Z" fill="#000000" fill-rule="nonzero" fill-opacity="1" /><path clip-path="url(#clip750)" d="M1239.85 214.499 Q1239.14 214.083 1238.28 213.897 Q1237.45 213.689 1236.43 213.689 Q1232.82 213.689 1230.87 216.05 Q1228.95 218.388 1228.95 222.786 L1228.95 236.444 L1224.67 236.444 L1224.67 210.518 L1228.95 210.518 L1228.95 214.546 Q1230.29 212.185 1232.45 211.05 Q1234.6 209.893 1237.68 209.893 Q1238.12 209.893 1238.65 209.962 Q1239.18 210.009 1239.83 210.124 L1239.85 214.499 Z" fill="#000000" fill-rule="nonzero" fill-opacity="1" /><path clip-path="url(#clip750)" d="M1260.55 214.453 L1260.55 200.425 L1264.81 200.425 L1264.81 236.444 L1260.55 236.444 L1260.55 232.555 Q1259.21 234.87 1257.15 236.004 Q1255.11 237.115 1252.24 237.115 Q1247.54 237.115 1244.58 233.365 Q1241.64 229.615 1241.64 223.504 Q1241.64 217.393 1244.58 213.643 Q1247.54 209.893 1252.24 209.893 Q1255.11 209.893 1257.15 211.027 Q1259.21 212.138 1260.55 214.453 M1246.03 223.504 Q1246.03 228.203 1247.96 230.888 Q1249.9 233.55 1253.28 233.55 Q1256.66 233.55 1258.6 230.888 Q1260.55 228.203 1260.55 223.504 Q1260.55 218.805 1258.6 216.143 Q1256.66 213.458 1253.28 213.458 Q1249.9 213.458 1247.96 216.143 Q1246.03 218.805 1246.03 223.504 Z" fill="#000000" fill-rule="nonzero" fill-opacity="1" /><path clip-path="url(#clip750)" d="M1295.76 222.416 L1295.76 224.499 L1276.17 224.499 Q1276.45 228.897 1278.81 231.212 Q1281.2 233.504 1285.43 233.504 Q1287.89 233.504 1290.18 232.902 Q1292.49 232.3 1294.76 231.096 L1294.76 235.124 Q1292.47 236.096 1290.06 236.606 Q1287.65 237.115 1285.18 237.115 Q1278.97 237.115 1275.34 233.504 Q1271.73 229.893 1271.73 223.735 Q1271.73 217.37 1275.15 213.643 Q1278.6 209.893 1284.44 209.893 Q1289.67 209.893 1292.7 213.272 Q1295.76 216.629 1295.76 222.416 M1291.5 221.166 Q1291.45 217.671 1289.53 215.587 Q1287.63 213.504 1284.48 213.504 Q1280.92 213.504 1278.77 215.518 Q1276.64 217.532 1276.31 221.189 L1291.5 221.166 Z" fill="#000000" fill-rule="nonzero" fill-opacity="1" /><path clip-path="url(#clip750)" d="M1317.77 214.499 Q1317.05 214.083 1316.2 213.897 Q1315.36 213.689 1314.34 213.689 Q1310.73 213.689 1308.79 216.05 Q1306.87 218.388 1306.87 222.786 L1306.87 236.444 L1302.59 236.444 L1302.59 210.518 L1306.87 210.518 L1306.87 214.546 Q1308.21 212.185 1310.36 211.05 Q1312.52 209.893 1315.59 209.893 Q1316.03 209.893 1316.57 209.962 Q1317.1 210.009 1317.75 210.124 L1317.77 214.499 Z" fill="#000000" fill-rule="nonzero" fill-opacity="1" /><path clip-path="url(#clip750)" d="M1343.14 203.018 L1343.14 207.578 Q1340.48 206.305 1338.12 205.68 Q1335.76 205.055 1333.56 205.055 Q1329.74 205.055 1327.65 206.536 Q1325.59 208.018 1325.59 210.749 Q1325.59 213.041 1326.96 214.222 Q1328.35 215.379 1332.19 216.097 L1335.02 216.675 Q1340.25 217.671 1342.72 220.194 Q1345.22 222.694 1345.22 226.907 Q1345.22 231.93 1341.84 234.522 Q1338.49 237.115 1331.98 237.115 Q1329.53 237.115 1326.75 236.559 Q1324 236.004 1321.03 234.916 L1321.03 230.101 Q1323.88 231.698 1326.61 232.509 Q1329.34 233.319 1331.98 233.319 Q1335.99 233.319 1338.16 231.745 Q1340.34 230.171 1340.34 227.254 Q1340.34 224.708 1338.77 223.272 Q1337.21 221.837 1333.65 221.12 L1330.8 220.564 Q1325.57 219.522 1323.23 217.3 Q1320.9 215.078 1320.9 211.12 Q1320.9 206.536 1324.11 203.898 Q1327.35 201.259 1333.02 201.259 Q1335.46 201.259 1337.98 201.698 Q1340.5 202.138 1343.14 203.018 Z" fill="#000000" fill-rule="nonzero" fill-opacity="1" /><path clip-path="url(#clip750)" d="M1356.54 203.157 L1356.54 210.518 L1365.32 210.518 L1365.32 213.828 L1356.54 213.828 L1356.54 227.902 Q1356.54 231.073 1357.4 231.976 Q1358.28 232.879 1360.94 232.879 L1365.32 232.879 L1365.32 236.444 L1360.94 236.444 Q1356.01 236.444 1354.14 234.615 Q1352.26 232.763 1352.26 227.902 L1352.26 213.828 L1349.14 213.828 L1349.14 210.518 L1352.26 210.518 L1352.26 203.157 L1356.54 203.157 Z" fill="#000000" fill-rule="nonzero" fill-opacity="1" /><path clip-path="url(#clip750)" d="M1382.7 223.411 Q1377.54 223.411 1375.55 224.592 Q1373.56 225.772 1373.56 228.62 Q1373.56 230.888 1375.04 232.231 Q1376.54 233.55 1379.11 233.55 Q1382.65 233.55 1384.78 231.05 Q1386.94 228.527 1386.94 224.36 L1386.94 223.411 L1382.7 223.411 M1391.2 221.652 L1391.2 236.444 L1386.94 236.444 L1386.94 232.509 Q1385.48 234.87 1383.3 236.004 Q1381.13 237.115 1377.98 237.115 Q1374 237.115 1371.64 234.893 Q1369.3 232.647 1369.3 228.897 Q1369.3 224.522 1372.21 222.3 Q1375.15 220.078 1380.96 220.078 L1386.94 220.078 L1386.94 219.661 Q1386.94 216.722 1384.99 215.124 Q1383.07 213.504 1379.58 213.504 Q1377.35 213.504 1375.25 214.036 Q1373.14 214.569 1371.2 215.634 L1371.2 211.698 Q1373.53 210.796 1375.73 210.356 Q1377.93 209.893 1380.02 209.893 Q1385.64 209.893 1388.42 212.81 Q1391.2 215.726 1391.2 221.652 Z" fill="#000000" fill-rule="nonzero" fill-opacity="1" /><path clip-path="url(#clip750)" d="M1404.18 203.157 L1404.18 210.518 L1412.95 210.518 L1412.95 213.828 L1404.18 213.828 L1404.18 227.902 Q1404.18 231.073 1405.04 231.976 Q1405.92 232.879 1408.58 232.879 L1412.95 232.879 L1412.95 236.444 L1408.58 236.444 Q1403.65 236.444 1401.77 234.615 Q1399.9 232.763 1399.9 227.902 L1399.9 213.828 L1396.77 213.828 L1396.77 210.518 L1399.9 210.518 L1399.9 203.157 L1404.18 203.157 Z" fill="#000000" fill-rule="nonzero" fill-opacity="1" /><path clip-path="url(#clip750)" d="M1435.08 211.282 L1435.08 215.31 Q1433.28 214.384 1431.33 213.921 Q1429.39 213.458 1427.31 213.458 Q1424.14 213.458 1422.54 214.43 Q1420.96 215.402 1420.96 217.347 Q1420.96 218.828 1422.1 219.684 Q1423.23 220.518 1426.66 221.282 L1428.12 221.606 Q1432.65 222.578 1434.55 224.36 Q1436.47 226.12 1436.47 229.291 Q1436.47 232.902 1433.6 235.008 Q1430.76 237.115 1425.76 237.115 Q1423.67 237.115 1421.4 236.698 Q1419.16 236.305 1416.66 235.495 L1416.66 231.096 Q1419.02 232.323 1421.31 232.948 Q1423.6 233.55 1425.85 233.55 Q1428.86 233.55 1430.48 232.532 Q1432.1 231.49 1432.1 229.615 Q1432.1 227.879 1430.92 226.953 Q1429.76 226.027 1425.8 225.171 L1424.32 224.823 Q1420.36 223.99 1418.6 222.277 Q1416.84 220.541 1416.84 217.532 Q1416.84 213.874 1419.44 211.884 Q1422.03 209.893 1426.8 209.893 Q1429.16 209.893 1431.24 210.24 Q1433.33 210.587 1435.08 211.282 Z" fill="#000000" fill-rule="nonzero" fill-opacity="1" /></svg>
