<?xml version="1.0" encoding="UTF-8" standalone="no"?><!DOCTYPE svg PUBLIC "-//W3C//DTD SVG 1.1//EN" "http://www.w3.org/Graphics/SVG/1.1/DTD/svg11.dtd"><svg width="100%" height="100%" viewBox="0 0 8534 2500" version="1.1" xmlns="http://www.w3.org/2000/svg" xmlns:xlink="http://www.w3.org/1999/xlink" xml:space="preserve" xmlns:serif="http://www.serif.com/" style="fill-rule:evenodd;clip-rule:evenodd;stroke-linejoin:round;stroke-miterlimit:2;"><g><path d="M3107.61,1124.56c-0,68.642 -12.133,128.823 -36.397,180.544c-24.264,51.721 -58.984,91.629 -104.16,119.724c-45.176,28.095 -96.976,42.143 -155.402,42.143c-57.786,-0 -109.348,-13.888 -154.683,-41.664c-45.336,-27.776 -80.455,-67.445 -105.357,-119.006c-24.903,-51.561 -37.514,-110.865 -37.833,-177.91l-0,-34.481c-0,-68.642 12.371,-129.062 37.114,-181.262c24.743,-52.2 59.703,-92.267 104.879,-120.203c45.175,-27.936 96.817,-41.904 154.923,-41.904c58.106,0 109.747,13.968 154.923,41.904c45.176,27.936 80.135,68.003 104.878,120.203c24.743,52.2 37.115,112.461 37.115,180.783l-0,31.129Zm-145.585,-31.607c-0,-73.112 -13.09,-128.664 -39.27,-166.656c-26.179,-37.993 -63.533,-56.989 -112.061,-56.989c-48.209,-0 -85.404,18.757 -111.583,56.27c-26.18,37.514 -39.429,92.507 -39.749,164.98l0,34.002c0,71.196 13.09,126.428 39.27,165.698c26.18,39.269 63.853,58.904 113.019,58.904c48.209,0 85.244,-18.916 111.104,-56.749c25.861,-37.833 38.951,-92.986 39.27,-165.459l-0,-34.001Z" style="fill-rule:nonzero;"/><path d="M3330.3,939.223l4.311,59.862c37.034,-46.294 86.68,-69.44 148.936,-69.44c54.914,-0 95.78,16.123 122.598,48.368c26.818,32.246 40.546,80.455 41.185,144.627l0,334.749l-138.401,-0l-0,-331.397c-0,-29.372 -6.385,-50.683 -19.156,-63.932c-12.771,-13.25 -34.002,-19.875 -63.693,-19.875c-38.95,0 -68.163,16.602 -87.638,49.806l-0,365.398l-138.401,-0l-0,-518.166l130.259,-0Z" style="fill-rule:nonzero;"/><rect x="3759.39" y="721.804" width="138.88" height="735.585" style="fill-rule:nonzero;"/><path d="M4158.31,1457.39l-138.88,-0l-0,-518.166l138.88,-0l-0,518.166Zm-147.022,-652.257c0,-20.753 6.944,-37.833 20.832,-51.242c13.888,-13.409 32.805,-20.114 56.75,-20.114c23.625,0 42.462,6.705 56.509,20.114c14.048,13.409 21.072,30.489 21.072,51.242c-0,21.071 -7.104,38.311 -21.311,51.721c-14.207,13.409 -32.964,20.113 -56.27,20.113c-23.307,0 -42.063,-6.704 -56.271,-20.113c-14.207,-13.41 -21.311,-30.65 -21.311,-51.721Z" style="fill-rule:nonzero;"/><path d="M4399.68,939.223l4.31,59.862c37.034,-46.294 86.68,-69.44 148.937,-69.44c54.913,-0 95.779,16.123 122.597,48.368c26.818,32.246 40.547,80.455 41.185,144.627l0,334.749l-138.401,-0l0,-331.397c0,-29.372 -6.385,-50.683 -19.156,-63.932c-12.77,-13.25 -34.002,-19.875 -63.693,-19.875c-38.95,0 -68.163,16.602 -87.638,49.806l-0,365.398l-138.401,-0l-0,-518.166l130.26,-0Z" style="fill-rule:nonzero;"/><path d="M5060.07,1466.97c-75.985,-0 -137.842,-23.307 -185.572,-69.919c-47.73,-46.613 -71.595,-108.71 -71.595,-186.291l-0,-13.409c-0,-52.04 10.056,-98.573 30.17,-139.598c20.114,-41.026 48.608,-72.633 85.483,-94.822c36.875,-22.189 78.938,-33.283 126.189,-33.283c70.877,-0 126.668,22.348 167.375,67.045c40.706,44.697 61.059,108.071 61.059,190.122l0,56.51l-329.96,0c4.47,33.842 17.959,60.98 40.467,81.412c22.508,20.433 51.002,30.65 85.483,30.65c53.317,-0 94.981,-19.316 124.992,-57.947l68.003,76.145c-20.752,29.372 -48.847,52.279 -84.285,68.722c-35.439,16.442 -74.708,24.663 -117.809,24.663Zm-15.804,-425.26c-27.456,-0 -49.725,9.258 -66.806,27.776c-17.08,18.517 -28.015,45.016 -32.804,79.496l192.516,0l0,-11.014c-0.638,-30.65 -8.939,-54.355 -24.902,-71.116c-15.963,-16.762 -38.631,-25.142 -68.004,-25.142Z" style="fill-rule:nonzero;"/><path d="M5722.39,1274.45c0,-27.137 -9.578,-47.969 -28.734,-62.496c-19.156,-14.526 -53.636,-29.851 -103.441,-45.974c-49.806,-16.123 -89.235,-32.006 -118.288,-47.65c-79.177,-42.781 -118.766,-100.409 -118.766,-172.882c-0,-37.673 10.615,-71.275 31.846,-100.807c21.231,-29.532 51.721,-52.599 91.47,-69.201c39.748,-16.602 84.365,-24.903 133.851,-24.903c49.805,0 94.183,9.02 133.133,27.058c38.951,18.039 69.201,43.5 90.751,76.384c21.551,32.884 32.326,70.238 32.326,112.062l-143.669,-0c-0,-31.927 -10.057,-56.749 -30.171,-74.468c-20.113,-17.72 -48.368,-26.579 -84.764,-26.579c-35.119,-0 -62.416,7.423 -81.892,22.268c-19.475,14.846 -29.212,34.401 -29.212,58.665c-0,22.668 11.413,41.664 34.241,56.989c22.827,15.325 56.43,29.692 100.808,43.101c81.731,24.583 141.274,55.073 178.628,91.469c37.354,36.396 56.031,81.732 56.031,136.007c-0,60.341 -22.828,107.671 -68.482,141.992c-45.655,34.321 -107.114,51.482 -184.376,51.482c-53.636,-0 -102.483,-9.818 -146.542,-29.452c-44.058,-19.635 -77.661,-46.533 -100.808,-80.694c-23.146,-34.162 -34.72,-73.751 -34.72,-118.767l144.148,0c0,76.943 45.974,115.414 137.922,115.414c34.162,0 60.82,-6.944 79.976,-20.832c19.156,-13.888 28.734,-33.283 28.734,-58.186Z" style="fill-rule:nonzero;"/><path d="M6120.35,811.836l0,127.387l88.596,-0l-0,101.526l-88.596,-0l0,258.604c0,19.156 3.672,32.884 11.015,41.185c7.343,8.301 21.39,12.451 42.143,12.451c15.324,0 28.893,-1.117 40.706,-3.352l-0,104.878c-27.138,8.301 -55.073,12.452 -83.807,12.452c-97.056,-0 -146.542,-49.007 -148.458,-147.021l-0,-279.197l-75.666,-0l0,-101.526l75.666,-0l-0,-127.387l138.401,0Z" style="fill-rule:nonzero;"/><path d="M6586.32,1457.39c-6.386,-12.451 -11.015,-27.936 -13.888,-46.453c-33.523,37.354 -77.103,56.031 -130.739,56.031c-50.763,-0 -92.826,-14.686 -126.19,-44.059c-33.363,-29.372 -50.044,-66.407 -50.044,-111.104c-0,-54.913 20.353,-97.056 61.059,-126.428c40.706,-29.373 99.531,-44.219 176.473,-44.538l63.694,0l-0,-29.691c-0,-23.945 -6.146,-43.101 -18.438,-57.468c-12.291,-14.367 -31.687,-21.55 -58.186,-21.55c-23.306,-0 -41.584,5.587 -54.833,16.761c-13.25,11.174 -19.875,26.499 -19.875,45.974l-138.401,0c0,-30.011 9.259,-57.787 27.776,-83.328c18.518,-25.541 44.697,-45.575 78.539,-60.101c33.842,-14.527 71.835,-21.79 113.978,-21.79c63.853,-0 114.536,16.043 152.049,48.129c37.514,32.086 56.271,77.182 56.271,135.288l-0,224.603c0.319,49.166 7.183,86.361 20.592,111.583l0,8.141l-139.837,-0Zm-114.457,-96.258c20.433,-0 39.27,-4.55 56.51,-13.649c17.24,-9.099 30.011,-21.311 38.312,-36.636l-0,-89.074l-51.721,-0c-69.28,-0 -106.156,23.945 -110.625,71.834l-0.479,8.141c-0,17.241 6.066,31.448 18.198,42.622c12.132,11.175 28.734,16.762 49.805,16.762Z" style="fill-rule:nonzero;"/><path d="M6977.58,811.836l0,127.387l88.596,-0l-0,101.526l-88.596,-0l0,258.604c0,19.156 3.672,32.884 11.015,41.185c7.343,8.301 21.39,12.451 42.143,12.451c15.324,0 28.893,-1.117 40.706,-3.352l-0,104.878c-27.138,8.301 -55.073,12.452 -83.807,12.452c-97.057,-0 -146.543,-49.007 -148.458,-147.021l-0,-279.197l-75.666,-0l0,-101.526l75.666,-0l-0,-127.387l138.401,0Z" style="fill-rule:nonzero;"/><path d="M7423.91,1314.2c-0,-16.921 -8.381,-30.251 -25.142,-39.988c-16.762,-9.738 -43.66,-18.438 -80.694,-26.1c-123.237,-25.86 -184.855,-78.22 -184.855,-157.078c0,-45.974 19.076,-84.366 57.229,-115.175c38.152,-30.809 88.037,-46.213 149.655,-46.213c65.768,-0 118.367,15.484 157.796,46.453c39.429,30.968 59.144,71.196 59.144,120.682l-138.401,-0c-0,-19.795 -6.385,-36.157 -19.156,-49.087c-12.771,-12.93 -32.725,-19.396 -59.862,-19.396c-23.306,0 -41.345,5.268 -54.115,15.804c-12.771,10.536 -19.156,23.945 -19.156,40.227c-0,15.325 7.263,27.697 21.789,37.115c14.527,9.418 39.031,17.559 73.511,24.424c34.481,6.864 63.534,14.606 87.159,23.226c73.112,26.818 109.668,73.271 109.668,139.359c-0,47.251 -20.274,85.483 -60.82,114.696c-40.547,29.212 -92.906,43.819 -157.078,43.819c-43.42,-0 -81.971,-7.742 -115.654,-23.227c-33.682,-15.484 -60.101,-36.715 -79.257,-63.693c-19.156,-26.978 -28.734,-56.111 -28.734,-87.399l131.218,0c1.277,24.584 10.376,43.42 27.297,56.51c16.921,13.09 39.589,19.635 68.003,19.635c26.499,-0 46.533,-5.028 60.102,-15.085c13.568,-10.057 20.353,-23.227 20.353,-39.509Z" style="fill-rule:nonzero;"/><path d="M7654.74,1389.39c-0,-22.03 7.423,-39.909 22.269,-53.637c14.845,-13.728 33.442,-20.592 55.791,-20.592c22.668,-0 41.425,6.864 56.27,20.592c14.846,13.728 22.269,31.607 22.269,53.637c0,21.71 -7.343,39.349 -22.029,52.918c-14.686,13.568 -33.523,20.353 -56.51,20.353c-22.668,-0 -41.345,-6.785 -56.031,-20.353c-14.686,-13.569 -22.029,-31.208 -22.029,-52.918Z" style="fill-rule:nonzero;"/><path d="M8079.04,939.223l0,546.421c0,57.148 -15.165,101.606 -45.495,133.372c-30.33,31.767 -74.069,47.651 -131.218,47.651c-23.944,-0 -46.772,-2.714 -68.482,-8.142l0,-109.667c16.602,2.873 31.128,4.31 43.58,4.31c41.823,0 62.735,-22.189 62.735,-66.566l0,-547.379l138.88,-0Zm-149.894,-134.091c-0,-20.753 6.944,-37.833 20.832,-51.242c13.888,-13.409 32.804,-20.114 56.749,-20.114c23.945,0 42.861,6.705 56.749,20.114c13.888,13.409 20.832,30.489 20.832,51.242c0,21.071 -7.104,38.311 -21.311,51.721c-14.207,13.409 -32.964,20.113 -56.27,20.113c-23.306,0 -42.063,-6.704 -56.271,-20.113c-14.207,-13.41 -21.31,-30.65 -21.31,-51.721Z" style="fill-rule:nonzero;"/><rect x="8194.45" y="721.804" width="138.88" height="735.585" style="fill-rule:nonzero;"/><path d="M1450.64,1659.51c-48.07,-0.104 -1037.45,-2.263 -1033.97,-2.284c361.211,-2.254 501.818,-177.063 610.149,-384.536c159.248,-304.988 276.787,-643.183 425.629,-643.183l1.555,0c148.842,0 263.015,338.195 422.263,643.183c108.331,207.473 248.939,382.282 610.15,384.536c3.478,0.021 -985.899,2.18 -1033.97,2.284l-0,0.004l-0.905,-0.002l-0.905,0.002l-0,-0.004Z" style="fill:#404fbf;"/><path d="M1450.64,1659.51c-48.07,-0.078 -1037.45,-1.697 -1033.97,-1.713c361.211,-1.69 501.818,-132.797 610.149,-288.402c159.248,-228.741 276.787,-482.387 425.629,-482.387l1.555,0c148.842,0 263.015,253.646 422.263,482.387c108.331,155.605 248.939,286.712 610.15,288.402c3.478,0.016 -985.899,1.635 -1033.97,1.713l-0,0.003l-0.905,-0.001l-0.905,0.001l-0,-0.003Z" style="fill:#407cbf;"/><path d="M1450.64,1659.51c-48.07,-0.052 -1037.45,-1.131 -1033.97,-1.142c361.211,-1.127 501.818,-88.531 610.149,-192.268c159.248,-152.494 276.787,-321.591 425.629,-321.591l1.555,-0c148.842,-0 263.015,169.097 422.263,321.591c108.331,103.737 248.939,191.141 610.15,192.268c3.478,0.011 -985.899,1.09 -1033.97,1.142l-0,0.002l-0.905,-0.001l-0.905,0.001l-0,-0.002Z" style="fill:#40a9bf;"/><path d="M1450.64,1666.67c-48.07,-0.027 -1037.45,-0.566 -1033.97,-0.572c361.211,-0.563 501.818,-44.265 610.149,-96.134c159.248,-76.247 276.787,-160.795 425.629,-160.795l1.555,-0c148.842,-0 263.015,84.548 422.263,160.795c108.331,51.869 248.939,95.571 610.15,96.134c3.478,0.006 -985.899,0.545 -1033.97,0.572l-0,0.001l-0.905,-0.001l-0.905,0.001l-0,-0.001Z" style="fill:#40bfa9;"/></g><g id="surface91"></g></svg>